<svg preserveAspectRatio="none" width="100%" height="100%" overflow="visible" style="display: block;" viewBox="0 0 20.6897 20.6897" fill="none" xmlns="http://www.w3.org/2000/svg">
<g id="Apple" clip-path="url(#clip0_955_7154)">
<path id="Vector" d="M18.7693 16.1235C18.4536 16.8464 18.0799 17.5117 17.6469 18.1235C17.0566 18.9574 16.5733 19.5347 16.2009 19.8552C15.6235 20.3814 15.0049 20.6508 14.3425 20.6662C13.867 20.6662 13.2935 20.5321 12.6259 20.2601C11.9561 19.9893 11.3406 19.8552 10.7778 19.8552C10.1876 19.8552 9.55457 19.9893 8.87746 20.2601C8.19933 20.5321 7.65303 20.6738 7.23534 20.6879C6.60012 20.7147 5.96696 20.4376 5.33496 19.8552C4.93159 19.5066 4.42704 18.9089 3.82262 18.0622C3.17412 17.158 2.64097 16.1095 2.22329 14.9141C1.77597 13.623 1.55172 12.3727 1.55172 11.1622C1.55172 9.77569 1.85406 8.57982 2.45964 7.57768C2.93558 6.77272 3.56874 6.13775 4.36119 5.67161C5.15364 5.20546 6.00988 4.96792 6.93197 4.95273C7.43652 4.95273 8.09816 5.10738 8.92038 5.41133C9.74028 5.7163 10.2667 5.87096 10.4975 5.87096C10.6701 5.87096 11.2549 5.69012 12.2464 5.3296C13.1839 4.99525 13.9752 4.85682 14.6235 4.91135C16.38 5.05183 17.6997 5.73801 18.5773 6.97425C17.0063 7.91751 16.2292 9.23867 16.2447 10.9335C16.2589 12.2537 16.7422 13.3522 17.692 14.2245C18.1224 14.6293 18.6031 14.9422 19.1379 15.1644C19.0219 15.4977 18.8995 15.817 18.7693 16.1235V16.1235ZM14.7407 0.413911C14.7407 1.44863 14.3593 2.41474 13.5989 3.30897C12.6813 4.37203 11.5715 4.98631 10.3679 4.88938C10.3526 4.76525 10.3437 4.6346 10.3437 4.49731C10.3437 3.50398 10.78 2.44092 11.555 1.57173C11.9418 1.13164 12.4339 0.765714 13.0306 0.473806C13.626 0.186254 14.1892 0.0272319 14.7188 0C14.7343 0.138326 14.7407 0.27666 14.7407 0.413897V0.413911Z" fill="var(--fill-0, white)"/>
</g>
<defs>
<clipPath id="clip0_955_7154">
<rect width="20.6897" height="20.6897" fill="white"/>
</clipPath>
</defs>
</svg>
