<svg preserveAspectRatio="none" width="100%" height="100%" overflow="visible" style="display: block;" viewBox="0 0 28 28" fill="none" xmlns="http://www.w3.org/2000/svg">
<g id="Catch map1">
<path id="Vector" d="M18.4353 9.51074L18.3924 9.50586C18.2949 9.48571 18.2205 9.39909 18.2205 9.29589C18.2205 9.18257 18.3101 9.08921 18.4217 9.08203C18.4262 9.08498 18.4308 9.08784 18.4353 9.09082M18.4353 9.51074V9.09082M18.4353 9.51074C18.5386 9.51074 18.6252 9.43644 18.6453 9.33886L18.6502 9.29589C18.6502 9.27829 18.6464 9.26152 18.6424 9.24511C18.5775 9.19146 18.5089 9.13927 18.4353 9.09082M18.4353 9.51074V9.09082M10.2254 13.5723C10.6608 14.6711 11.2901 15.742 12.0916 16.7441C12.9885 17.8607 14.0319 18.8337 15.2 19.6416L15.7088 19.9775L15.7098 19.9785C15.8899 20.0931 16.0949 20.1533 16.3055 20.1533C16.5161 20.1532 16.7359 20.0885 16.9139 19.9678L16.9226 19.9619L16.9324 19.9561C17.9003 19.36 18.779 18.6322 19.5418 17.79L19.7361 17.5732V17.5723L19.8553 17.4316C20.7214 16.4136 21.4148 15.2635 21.9139 14.0273L21.9148 14.0254C22.0962 13.5829 22.5693 13.295 23.0721 13.3994C23.6139 13.5119 24.1907 13.6556 24.6424 13.8281C24.8652 13.9133 25.0859 14.0153 25.2605 14.1416C25.4152 14.2535 25.6545 14.4712 25.6668 14.8096H25.6648C25.6758 15.0994 25.5151 15.3038 25.3807 15.4209C25.247 15.5373 25.0804 15.6228 24.9285 15.6885C24.7756 15.7546 24.5986 15.8158 24.4139 15.874L23.8514 16.04C23.443 16.1567 23.0589 16.2678 22.7566 16.3955C22.6067 16.4589 22.4971 16.5183 22.4246 16.5713C22.4233 16.5723 22.422 16.5733 22.4207 16.5742C22.4712 16.6145 22.5486 16.6678 22.6639 16.7295C23.0324 16.9267 23.5792 17.1193 24.2068 17.3389C24.7988 17.5459 25.453 17.7741 25.9851 18.0361C26.2524 18.1677 26.5092 18.3176 26.7205 18.4912C26.9287 18.6623 27.1266 18.8841 27.2215 19.1689L27.2225 19.1699C27.3647 19.6004 27.2243 20.0122 26.991 20.3437C26.7608 20.6708 26.405 20.9757 25.9803 21.2578C25.1253 21.8256 23.8677 22.3789 22.366 22.8594C19.3556 23.8226 15.2536 24.5284 11.1502 24.4326V24.4316C8.54757 24.3705 5.98378 23.9891 4.08183 23.498C3.13415 23.2534 2.32784 22.9759 1.75859 22.6865C1.47719 22.5434 1.22412 22.3824 1.04081 22.2002C0.866604 22.027 0.668971 21.7438 0.732218 21.3848C0.784153 21.0891 0.991705 20.894 1.15507 20.7764C1.32912 20.6511 1.5446 20.548 1.76347 20.4609C2.20236 20.2863 2.7696 20.1298 3.3123 19.9795C3.96055 19.7999 4.58155 19.6274 5.04472 19.4287C5.2769 19.3291 5.43632 19.2366 5.53105 19.1562C5.54738 19.1424 5.55721 19.1274 5.56718 19.1172C5.5561 19.1074 5.54408 19.0948 5.52812 19.082C5.48579 19.0482 5.43619 19.0127 5.37187 18.9658C5.14698 18.8019 4.80395 18.5553 4.53202 18.1328L4.53105 18.1309L4.52909 18.1289C4.52792 18.127 4.52669 18.1245 4.52519 18.1221C4.52222 18.1173 4.51856 18.1114 4.51444 18.1045C4.50605 18.0903 4.49542 18.0716 4.48319 18.0488C4.45878 18.0033 4.42743 17.9404 4.3953 17.8623C4.33137 17.7069 4.26132 17.4861 4.23222 17.2178C4.1724 16.6655 4.2923 15.9482 4.91386 15.2314H4.91484C5.35099 14.7294 6.03274 14.3371 6.8289 14.0254C7.63473 13.7099 8.60619 13.4581 9.67069 13.2646L10.074 13.1914L10.2254 13.5723ZM16.7517 3.36132L16.9998 3.38086C17.8937 3.47101 18.5852 3.72764 18.9617 3.89453L19.242 4.02832L19.2459 4.03027C19.8255 4.33428 20.2378 4.67721 20.4549 4.87597C20.877 5.26199 21.242 5.70661 21.5398 6.19433L21.5408 6.19628C22.2344 7.3436 22.7099 9.56024 22.3142 11.9033V11.9043C21.8178 14.8325 20.1725 16.7844 19.3592 17.6269C18.6029 18.4595 17.7316 19.1822 16.7732 19.7686L16.7723 19.7666C16.4913 19.953 16.1289 19.9582 15.8455 19.7783V19.7773C14.4901 18.92 13.286 17.8454 12.282 16.5947L12.281 16.5937C10.9715 14.9587 10.1409 13.1343 9.85429 11.3574C9.56736 9.57846 9.83407 7.78614 10.7557 6.3291L10.9373 6.06054C11.1325 5.78785 11.4403 5.40582 11.8758 5.0166L12.1521 4.7832C14.0685 3.25101 16.2326 3.32841 16.7517 3.36132ZM19.4139 10.75C18.2051 11.9001 16.3707 12.1194 14.9129 11.2871H14.9119C14.8254 11.2376 14.7437 11.1827 14.6678 11.1289L14.4598 10.9746C14.4075 10.9349 14.359 10.8998 14.3142 10.8672C14.2573 10.9034 14.197 10.9427 14.1316 10.9863C13.9586 11.1018 13.7414 11.2479 13.4988 11.3535L13.4969 11.3545C13.3938 11.3989 13.2865 11.4391 13.1795 11.4687C13.7838 12.4682 14.8804 13.1355 16.1346 13.1357C17.6673 13.1341 18.9654 12.1345 19.4139 10.75ZM16.1307 6.24023C14.8894 6.24023 13.7992 6.89771 13.1922 7.88378C13.2598 7.90247 13.3248 7.92361 13.3846 7.94628H13.3855C13.6921 8.06332 13.9635 8.25954 14.1687 8.40527C14.2039 8.43021 14.2381 8.45298 14.2703 8.47558C14.8667 8.03194 15.6063 7.66582 16.3992 7.59472H16.4002C17.0047 7.54117 17.6813 7.64967 18.2889 7.89355C18.6876 8.05364 19.0748 8.2811 19.3982 8.57714C18.9446 7.24373 17.6986 6.27771 16.2195 6.24023H16.1307Z" stroke="var(--stroke-0, #A3A3A3)"/>
</g>
</svg>
