<svg preserveAspectRatio="none" width="100%" height="100%" overflow="visible" style="display: block;" viewBox="0 0 20.2759 20.6896" fill="none" xmlns="http://www.w3.org/2000/svg">
<g id="Group">
<path id="Shape" fill-rule="evenodd" clip-rule="evenodd" d="M20.2759 10.5799C20.2759 9.84641 20.21 9.14108 20.0878 8.46396H10.3448V12.4655H15.9122C15.6724 13.7586 14.9436 14.8542 13.848 15.5878V18.1834H17.1912C19.1473 16.3825 20.2759 13.7304 20.2759 10.5799Z" fill="var(--fill-0, #4285F4)"/>
<path id="Shape_2" fill-rule="evenodd" clip-rule="evenodd" d="M10.3448 20.6896C13.1379 20.6896 15.4796 19.7633 17.1912 18.1834L13.848 15.5878C12.9216 16.2085 11.7367 16.5752 10.3448 16.5752C7.65047 16.5752 5.36991 14.7555 4.55643 12.3103H1.10032V14.9906C2.80251 18.3715 6.30094 20.6896 10.3448 20.6896Z" fill="var(--fill-0, #34A853)"/>
<path id="Shape_3" fill-rule="evenodd" clip-rule="evenodd" d="M4.55643 12.3104C4.34953 11.6897 4.23197 11.0267 4.23197 10.3448C4.23197 9.66302 4.34953 9.00001 4.55643 8.37932V5.69907H1.10031C0.399686 7.09562 0 8.67556 0 10.3448C0 12.0141 0.399686 13.5941 1.10031 14.9906L4.55643 12.3104Z" fill="var(--fill-0, #FBBC05)"/>
<path id="Shape_4" fill-rule="evenodd" clip-rule="evenodd" d="M10.3448 4.11442C11.8636 4.11442 13.2273 4.63636 14.2994 5.66144L17.2665 2.69436C15.4749 1.02508 13.1332 0 10.3448 0C6.30094 0 2.80251 2.31818 1.10032 5.69906L4.55643 8.37931C5.36991 5.93417 7.65047 4.11442 10.3448 4.11442Z" fill="var(--fill-0, #EA4335)"/>
</g>
</svg>
