<svg preserveAspectRatio="none" width="100%" height="100%" overflow="visible" style="display: block;" viewBox="0 0 19.5058 14.2528" fill="none" xmlns="http://www.w3.org/2000/svg">
<path id="Vector" d="M19.1738 1.92195L7.17383 13.922C7.06931 14.0268 6.94512 14.11 6.80837 14.1668C6.67163 14.2236 6.52502 14.2528 6.37695 14.2528C6.22889 14.2528 6.08228 14.2236 5.94553 14.1668C5.80878 14.11 5.68459 14.0268 5.58008 13.922L0.330076 8.67195C0.225429 8.56731 0.142419 8.44307 0.085784 8.30634C0.0291494 8.16961 1.55936e-09 8.02307 0 7.87508C-1.55936e-09 7.72708 0.0291494 7.58054 0.085784 7.44381C0.142419 7.30708 0.225429 7.18285 0.330076 7.0782C0.434724 6.97356 0.558958 6.89054 0.695686 6.83391C0.832414 6.77727 0.978958 6.74812 1.12695 6.74812C1.27494 6.74812 1.42149 6.77727 1.55822 6.83391C1.69495 6.89054 1.81918 6.97356 1.92383 7.0782L6.37789 11.5323L17.582 0.330076C17.7933 0.118732 18.0799 0 18.3788 0C18.6777 0 18.9644 0.118732 19.1757 0.330076C19.387 0.541421 19.5058 0.828065 19.5058 1.12695C19.5058 1.42584 19.387 1.71248 19.1757 1.92383L19.1738 1.92195Z" fill="var(--fill-0, #004C8F)"/>
</svg>
