<svg preserveAspectRatio="none" width="100%" height="100%" overflow="visible" style="display: block;" viewBox="0 0 26 26" fill="none" xmlns="http://www.w3.org/2000/svg">
<g id="Feed" clip-path="url(#clip0_1002_7109)">
<path id="Vector" d="M20.1783 8.60256C18.81 8.74469 18.5155 10.7942 18.1591 12.123C17.8027 13.4517 18.0135 16.214 18.1456 16.1813C16.7957 15.8946 17.0251 13.3028 17.1571 11.7636C17.289 10.2245 17.8916 8.76332 18.8829 7.57861C18.8921 7.5676 18.8675 7.5623 18.8576 7.552C18.4739 7.15645 18.0174 6.75924 17.5452 6.40464C17.0745 6.0511 16.5729 5.72689 16.095 5.48789C15.6421 5.2614 15.1133 5.06011 14.6186 5.05933C14.3511 5.0589 14.1958 5.00494 13.9338 5.05825C12.7318 5.30272 14.513 7.88225 13.3132 8.13716C12.0913 8.39676 10.8943 8.953 9.2833 10.0713C9.15141 10.1629 9.02117 9.86263 8.86937 9.75069C8.28683 9.3211 7.42983 8.79027 6.5127 8.60463C6.12264 8.52568 5.91003 8.43849 5.51354 8.40411C1.96489 8.09636 1.95 17.8269 5.49917 17.5251C5.89535 17.4914 6.10778 17.404 6.49778 17.3265C7.32926 17.1614 7.95064 16.9036 8.49619 16.5416C8.78923 16.3471 8.99344 15.7508 9.30246 15.8946C10.5952 16.4965 11.8863 17.8422 13.5108 18.3152C14.2976 18.5443 12.1499 19.8627 12.8406 20.3037C13.2226 20.5476 13.548 20.305 14.0012 20.3055C15.4045 20.3071 16.6357 19.8945 17.501 19.4963C17.9342 19.297 18.2866 18.917 18.7495 18.8023C20.5155 18.3647 22.0357 17.592 23.1304 16.6337C24.2679 15.6379 25.0417 14.5634 25.3649 14.0007C25.4667 13.8235 25.6337 13.7514 25.626 13.5471C25.6183 13.3429 25.4466 13.2834 25.3315 13.1145C23.8425 10.9302 22.2649 8.38581 20.1783 8.60256ZM22.2317 14.1203C21.769 14.5816 21.0199 14.5804 20.5587 14.1177C20.0974 13.6549 20.0986 12.9059 20.5613 12.4446C21.024 11.9833 21.7731 11.9845 22.2344 12.4473C22.6956 12.91 22.6945 13.659 22.2317 14.1203Z" fill="var(--fill-0, #F5F5F5)"/>
</g>
<defs>
<clipPath id="clip0_1002_7109">
<rect width="26" height="26" fill="white"/>
</clipPath>
</defs>
</svg>
