<svg preserveAspectRatio="none" width="100%" height="100%" overflow="visible" style="display: block;" viewBox="0 0 20 19.1161" fill="none" xmlns="http://www.w3.org/2000/svg">
<g id="Group">
<path id="Vector" d="M2.5 1.25C2.16848 1.25 1.85054 1.3817 1.61612 1.61612C1.3817 1.85054 1.25 2.16848 1.25 2.5V12.5C1.25 12.8315 1.3817 13.1495 1.61612 13.3839C1.85054 13.6183 2.16848 13.75 2.5 13.75H14.4825C15.1455 13.7501 15.7813 14.0136 16.25 14.4825L18.75 16.9825V2.5C18.75 2.16848 18.6183 1.85054 18.3839 1.61612C18.1495 1.3817 17.8315 1.25 17.5 1.25H2.5ZM17.5 0C18.163 0 18.7989 0.263392 19.2678 0.732233C19.7366 1.20107 20 1.83696 20 2.5V18.4913C20 18.6149 19.9633 18.7358 19.8945 18.8386C19.8257 18.9414 19.728 19.0215 19.6138 19.0687C19.4995 19.116 19.3737 19.1282 19.2525 19.104C19.1312 19.0797 19.0198 19.0201 18.9325 18.9325L15.3663 15.3663C15.1319 15.1318 14.814 15.0001 14.4825 15H2.5C1.83696 15 1.20107 14.7366 0.732233 14.2678C0.263392 13.7989 0 13.163 0 12.5V2.5C0 1.83696 0.263392 1.20107 0.732233 0.732233C1.20107 0.263392 1.83696 0 2.5 0L17.5 0Z" fill="var(--fill-0, #F5F5F5)"/>
<path id="Vector_2" d="M6.25 7.49999C6.25 7.83151 6.1183 8.14945 5.88388 8.38387C5.64946 8.61829 5.33152 8.74999 5 8.74999C4.66848 8.74999 4.35054 8.61829 4.11612 8.38387C3.8817 8.14945 3.75 7.83151 3.75 7.49999C3.75 7.16847 3.8817 6.85053 4.11612 6.61611C4.35054 6.38169 4.66848 6.24999 5 6.24999C5.33152 6.24999 5.64946 6.38169 5.88388 6.61611C6.1183 6.85053 6.25 7.16847 6.25 7.49999ZM11.25 7.49999C11.25 7.83151 11.1183 8.14945 10.8839 8.38387C10.6495 8.61829 10.3315 8.74999 10 8.74999C9.66848 8.74999 9.35054 8.61829 9.11612 8.38387C8.8817 8.14945 8.75 7.83151 8.75 7.49999C8.75 7.16847 8.8817 6.85053 9.11612 6.61611C9.35054 6.38169 9.66848 6.24999 10 6.24999C10.3315 6.24999 10.6495 6.38169 10.8839 6.61611C11.1183 6.85053 11.25 7.16847 11.25 7.49999ZM16.25 7.49999C16.25 7.83151 16.1183 8.14945 15.8839 8.38387C15.6495 8.61829 15.3315 8.74999 15 8.74999C14.6685 8.74999 14.3505 8.61829 14.1161 8.38387C13.8817 8.14945 13.75 7.83151 13.75 7.49999C13.75 7.16847 13.8817 6.85053 14.1161 6.61611C14.3505 6.38169 14.6685 6.24999 15 6.24999C15.3315 6.24999 15.6495 6.38169 15.8839 6.61611C16.1183 6.85053 16.25 7.16847 16.25 7.49999Z" fill="var(--fill-0, #F5F5F5)"/>
</g>
</svg>
