<svg preserveAspectRatio="none" width="100%" height="100%" overflow="visible" style="display: block;" viewBox="0 0 26.6258 28.6899" fill="none" xmlns="http://www.w3.org/2000/svg">
<path id="Vector" d="M9.06934 27.0645H17.5693C17.7184 27.0645 17.8613 27.1241 17.9668 27.2295C18.0722 27.3349 18.1317 27.4779 18.1318 27.627C18.1318 27.7761 18.0723 27.9199 17.9668 28.0254C17.8613 28.1307 17.7184 28.1894 17.5693 28.1895H9.06934C8.92028 28.1895 8.77734 28.1307 8.67187 28.0254C8.56639 27.9199 8.50684 27.7761 8.50684 27.627C8.50696 27.4779 8.56649 27.3349 8.67187 27.2295C8.77734 27.1241 8.92026 27.0645 9.06934 27.0645ZM13.3193 2.62695C16.0045 2.62696 18.5797 3.69411 20.4785 5.59277C22.3772 7.49147 23.4442 10.0668 23.4443 12.752C23.4443 16.2913 24.0864 19.3254 25.3428 21.4951L25.3437 21.4961C25.4876 21.7427 25.5643 22.0231 25.5654 22.3086C25.5665 22.5942 25.4916 22.8753 25.3496 23.123C25.2076 23.3707 25.0027 23.5763 24.7559 23.7197C24.5089 23.8631 24.2289 23.9389 23.9434 23.9395H2.69434L2.48145 23.9258C2.27049 23.8977 2.06619 23.8281 1.88086 23.7207C1.63373 23.5774 1.42833 23.3718 1.28613 23.124C1.14394 22.8763 1.07035 22.5952 1.07129 22.3096C1.07227 22.0238 1.14805 21.7429 1.29199 21.4961L1.29297 21.4951C2.55217 19.3264 3.19434 16.2923 3.19434 12.752C3.19446 10.0668 4.26146 7.49147 6.16016 5.59277C8.05894 3.69411 10.6341 2.62695 13.3193 2.62695ZM6.00879 0.513672C6.08113 0.529823 6.15034 0.559851 6.21094 0.602539C6.27147 0.645211 6.32277 0.700067 6.3623 0.762695C6.40175 0.825279 6.42895 0.894844 6.44141 0.967773C6.45387 1.04084 6.45111 1.11622 6.43457 1.18848C6.41801 1.26048 6.38759 1.32848 6.34473 1.38867C6.30172 1.44902 6.24745 1.50082 6.18457 1.54004L6.18066 1.54199C4.21169 2.79453 2.61627 4.55418 1.56152 6.63574C1.51412 6.72724 1.44155 6.80483 1.35352 6.8584C1.26561 6.91175 1.16436 6.93843 1.06152 6.93848C0.96529 6.93831 0.870999 6.91436 0.787109 6.86719C0.703081 6.81991 0.632168 6.75227 0.582031 6.66992C0.531882 6.58742 0.503291 6.49297 0.5 6.39648C0.496731 6.30011 0.519154 6.20478 0.563477 6.11914L0.564453 6.11621C1.71811 3.86148 3.44967 1.95302 5.58301 0.587891L5.58398 0.588867C5.64643 0.548975 5.71609 0.521655 5.78906 0.508789C5.86193 0.495951 5.93657 0.497604 6.00879 0.513672ZM20.8496 0.508789C20.9225 0.521636 20.9923 0.548114 21.0547 0.587891C23.1851 1.95101 24.9146 3.85589 26.0684 6.10645H26.0693C26.1332 6.23833 26.1429 6.39025 26.0967 6.5293C26.0504 6.66821 25.9523 6.78418 25.8223 6.85156C25.6922 6.91896 25.5406 6.93204 25.4004 6.88965C25.2953 6.85784 25.2025 6.79669 25.1328 6.71387L25.0713 6.62402C24.0165 4.54755 22.4233 2.79218 20.458 1.54199L20.4541 1.54004L20.3662 1.47266C20.3394 1.4474 20.3154 1.41884 20.2939 1.38867C20.2511 1.32848 20.2207 1.26049 20.2041 1.18848C20.1876 1.11622 20.1848 1.04084 20.1973 0.967773C20.2097 0.894845 20.2369 0.825285 20.2764 0.762695C20.3159 0.700058 20.3672 0.645212 20.4277 0.602539C20.4882 0.559948 20.5567 0.529851 20.6289 0.513672C20.7013 0.497521 20.7766 0.495927 20.8496 0.508789Z" stroke="var(--stroke-0, #FAFAFA)"/>
</svg>
