<svg preserveAspectRatio="none" width="100%" height="100%" overflow="visible" style="display: block;" viewBox="0 0 28 28" fill="none" xmlns="http://www.w3.org/2000/svg">
<g id="Container">
<path id="Icon" d="M11.25 24L10.85 20.8C10.6333 20.7167 10.4292 20.6167 10.2375 20.5C10.0458 20.3833 9.85833 20.2583 9.675 20.125L6.7 21.375L3.95 16.625L6.525 14.675C6.50833 14.5583 6.5 14.4458 6.5 14.3375C6.5 14.2292 6.5 14.1167 6.5 14C6.5 13.8833 6.5 13.7708 6.5 13.6625C6.5 13.5542 6.50833 13.4417 6.525 13.325L3.95 11.375L6.7 6.625L9.675 7.875C9.85833 7.74167 10.05 7.61667 10.25 7.5C10.45 7.38333 10.65 7.28333 10.85 7.2L11.25 4H16.75L17.15 7.2C17.3667 7.28333 17.5708 7.38333 17.7625 7.5C17.9542 7.61667 18.1417 7.74167 18.325 7.875L21.3 6.625L24.05 11.375L21.475 13.325C21.4917 13.4417 21.5 13.5542 21.5 13.6625C21.5 13.7708 21.5 13.8833 21.5 14C21.5 14.1167 21.5 14.2292 21.5 14.3375C21.5 14.4458 21.4833 14.5583 21.45 14.675L24.025 16.625L21.275 21.375L18.325 20.125C18.1417 20.2583 17.95 20.3833 17.75 20.5C17.55 20.6167 17.35 20.7167 17.15 20.8L16.75 24H11.25ZM13 22H14.975L15.325 19.35C15.8417 19.2167 16.3208 19.0208 16.7625 18.7625C17.2042 18.5042 17.6083 18.1917 17.975 17.825L20.45 18.85L21.425 17.15L19.275 15.525C19.3583 15.2917 19.4167 15.0458 19.45 14.7875C19.4833 14.5292 19.5 14.2667 19.5 14C19.5 13.7333 19.4833 13.4708 19.45 13.2125C19.4167 12.9542 19.3583 12.7083 19.275 12.475L21.425 10.85L20.45 9.15L17.975 10.2C17.6083 9.81667 17.2042 9.49583 16.7625 9.2375C16.3208 8.97917 15.8417 8.78333 15.325 8.65L15 6H13.025L12.675 8.65C12.1583 8.78333 11.6792 8.97917 11.2375 9.2375C10.7958 9.49583 10.3917 9.80833 10.025 10.175L7.55 9.15L6.575 10.85L8.725 12.45C8.64167 12.7 8.58333 12.95 8.55 13.2C8.51667 13.45 8.5 13.7167 8.5 14C8.5 14.2667 8.51667 14.525 8.55 14.775C8.58333 15.025 8.64167 15.275 8.725 15.525L6.575 17.15L7.55 18.85L10.025 17.8C10.3917 18.1833 10.7958 18.5042 11.2375 18.7625C11.6792 19.0208 12.1583 19.2167 12.675 19.35L13 22ZM14.05 17.5C15.0167 17.5 15.8417 17.1583 16.525 16.475C17.2083 15.7917 17.55 14.9667 17.55 14C17.55 13.0333 17.2083 12.2083 16.525 11.525C15.8417 10.8417 15.0167 10.5 14.05 10.5C13.0667 10.5 12.2375 10.8417 11.5625 11.525C10.8875 12.2083 10.55 13.0333 10.55 14C10.55 14.9667 10.8875 15.7917 11.5625 16.475C12.2375 17.1583 13.0667 17.5 14.05 17.5Z" fill="var(--fill-0, #A3A3A3)"/>
</g>
</svg>
