<svg preserveAspectRatio="none" width="100%" height="100%" overflow="visible" style="display: block;" viewBox="0 0 24 24" fill="none" xmlns="http://www.w3.org/2000/svg">
<g id="Apple">
<path id="Vector" d="M21.7724 18.7033C21.4062 19.5418 20.9727 20.3136 20.4704 21.0232C19.7857 21.9906 19.2251 22.6602 18.793 23.032C18.1233 23.6424 17.4057 23.955 16.6373 23.9728C16.0857 23.9728 15.4204 23.8172 14.6461 23.5017C13.8691 23.1876 13.1551 23.032 12.5023 23.032C11.8176 23.032 11.0833 23.1876 10.2979 23.5017C9.51122 23.8172 8.87751 23.9816 8.393 23.9979C7.65614 24.0291 6.92168 23.7076 6.18856 23.032C5.72064 22.6276 5.13537 21.9343 4.43424 20.9521C3.68198 19.9033 3.06353 18.687 2.57902 17.3004C2.06012 15.8026 1.8 14.3523 1.8 12.9482C1.8 11.3398 2.15071 9.95259 2.85319 8.79011C3.40527 7.85636 4.13974 7.11979 5.05898 6.57906C5.97822 6.03834 6.97146 5.76279 8.04109 5.74516C8.62636 5.74516 9.39387 5.92456 10.3476 6.27715C11.2987 6.63091 11.9094 6.81031 12.1772 6.81031C12.3773 6.81031 13.0557 6.60054 14.2058 6.18233C15.2934 5.79449 16.2113 5.63391 16.9632 5.69716C19.0008 5.86012 20.5316 6.6561 21.5497 8.09013C19.7274 9.18432 18.8259 10.7169 18.8439 12.6829C18.8603 14.2142 19.4209 15.4886 20.5227 16.5004C21.022 16.97 21.5796 17.333 22.2 17.5907C22.0655 17.9774 21.9234 18.3477 21.7724 18.7033V18.7033ZM17.0993 0.480137C17.0993 1.68041 16.6567 2.8011 15.7747 3.8384C14.7103 5.07155 13.4229 5.78412 12.0268 5.67168C12.009 5.52769 11.9987 5.37614 11.9987 5.21688C11.9987 4.06462 12.5048 2.83147 13.4038 1.82321C13.8525 1.3127 14.4233 0.888228 15.1155 0.549615C15.8061 0.216055 16.4594 0.031589 17.0738 0C17.0918 0.160458 17.0993 0.320926 17.0993 0.480121V0.480137Z" fill="var(--fill-0, black)"/>
</g>
</svg>
