<svg preserveAspectRatio="none" width="100%" height="100%" overflow="visible" style="display: block;" viewBox="0 0 18.7946 20.2517" fill="none" xmlns="http://www.w3.org/2000/svg">
<path id="Vector" d="M13.1519 19.5017C13.1519 19.7006 13.0729 19.8914 12.9322 20.032C12.7916 20.1727 12.6008 20.2517 12.4019 20.2517H6.40187C6.20296 20.2517 6.0122 20.1727 5.87154 20.032C5.73089 19.8914 5.65187 19.7006 5.65187 19.5017C5.65187 19.3028 5.73089 19.112 5.87154 18.9714C6.0122 18.8307 6.20296 18.7517 6.40187 18.7517H12.4019C12.6008 18.7517 12.7916 18.8307 12.9322 18.9714C13.0729 19.112 13.1519 19.3028 13.1519 19.5017ZM18.7197 4.1567C17.8768 2.50919 16.611 1.11535 15.0522 0.117948C14.9689 0.0647435 14.8759 0.0285258 14.7786 0.0113767C14.6812 -0.00577242 14.5815 -0.00351456 14.485 0.0180203C14.3886 0.0395552 14.2973 0.0799424 14.2165 0.13686C14.1357 0.193778 14.067 0.266105 14.0142 0.349682C13.9615 0.433258 13.9257 0.526438 13.9091 0.623863C13.8925 0.721288 13.8953 0.821038 13.9174 0.917378C13.9394 1.01372 13.9803 1.10475 14.0376 1.18524C14.095 1.26573 14.1677 1.33409 14.2516 1.38639C15.589 2.23717 16.6726 3.43247 17.3884 4.8467C17.483 5.01764 17.6406 5.14492 17.8276 5.20145C18.0146 5.25799 18.2163 5.23932 18.3898 5.14941C18.5632 5.05951 18.6948 4.90547 18.7564 4.72007C18.818 4.53467 18.8048 4.33254 18.7197 4.1567ZM0.749686 5.2517C0.887089 5.25164 1.02184 5.21384 1.13922 5.14242C1.2566 5.071 1.35211 4.9687 1.41531 4.8467C2.13119 3.43247 3.21477 2.23717 4.55219 1.38639C4.63605 1.33409 4.70874 1.26573 4.7661 1.18524C4.82345 1.10475 4.86433 1.01372 4.88639 0.917378C4.90845 0.821038 4.91125 0.721288 4.89462 0.623863C4.878 0.526438 4.84229 0.433258 4.78953 0.349682C4.73678 0.266105 4.66803 0.193778 4.58723 0.13686C4.50643 0.0799424 4.41518 0.0395552 4.31872 0.0180203C4.22227 -0.00351456 4.1225 -0.00577242 4.02517 0.0113767C3.92784 0.0285258 3.83485 0.0647435 3.75156 0.117948C2.19271 1.11535 0.926992 2.50919 0.0840611 4.1567C0.0248465 4.271 -0.00395245 4.39861 0.000436032 4.52727C0.00482451 4.65592 0.0422526 4.78128 0.109118 4.89127C0.175984 5.00127 0.270036 5.09221 0.382224 5.15533C0.494412 5.21846 0.620959 5.25164 0.749686 5.2517ZM16.9019 9.0017C16.9019 7.01257 16.1117 5.10492 14.7052 3.6984C13.2987 2.29187 11.391 1.5017 9.40187 1.5017C7.41275 1.5017 5.5051 2.29187 4.09857 3.6984C2.69205 5.10492 1.90187 7.01257 1.90187 9.0017C1.90187 11.4654 1.45375 13.5383 0.607186 14.9961C0.474315 15.2239 0.403874 15.4828 0.402969 15.7465C0.402063 16.0103 0.470725 16.2696 0.602029 16.4984C0.733332 16.7272 0.922635 16.9173 1.15085 17.0495C1.37906 17.1818 1.63811 17.2515 1.90187 17.2517H16.9019C17.1655 17.2512 17.4243 17.1812 17.6522 17.0488C17.8802 16.9164 18.0692 16.7263 18.2003 16.4976C18.3314 16.2689 18.3999 16.0097 18.3989 15.7461C18.3979 15.4825 18.3275 15.2238 18.1947 14.9961C17.35 13.5373 16.9019 11.4645 16.9019 9.0017Z" fill="var(--fill-0, #F5F5F5)"/>
</svg>
