<svg preserveAspectRatio="none" width="100%" height="100%" overflow="visible" style="display: block;" viewBox="0 0 28 24.5001" fill="none" xmlns="http://www.w3.org/2000/svg">
<g id="Frame 1597884025">
<g id="Vector">
</g>
<g id="Group 12">
<path id="Vector_2" d="M11.1651 6.51343C8.77748 5.6528 7.18272 3.22791 6.99749 0.716051L10.0029 1.79692C9.75105 3.52043 10.0255 5.14794 11.1651 6.51343Z" fill="var(--fill-0, #A3A3A3)"/>
<g id="Group">
<path id="Vector_3" d="M4.18587 4.52946L4.11361 4.56071L4.04036 4.59196L3.98079 4.64274L3.94466 4.67399C3.55059 5.00569 3.50602 5.49962 3.55306 5.92594C3.60122 6.36173 3.76037 6.88196 3.96029 7.44547L3.96126 7.4484L3.98861 7.52262C4.04743 7.68836 4.10608 7.841 4.16341 7.98258L4.16732 7.99137C4.29872 8.29878 4.43174 8.55909 4.57259 8.79508L4.57454 8.79801C4.76203 9.1072 4.95472 9.3667 5.14974 9.62712V9.62809C5.23782 9.74609 5.32504 9.86283 5.41341 9.98649L5.6849 10.3859C5.75214 10.4903 5.82735 10.6658 5.93001 10.9201L5.93197 10.924C5.93862 10.94 5.94565 10.9564 5.95247 10.9728C5.69782 10.7476 5.45204 10.5045 5.22005 10.2443C4.3413 9.25898 3.65492 8.07581 3.22689 6.96208L3.0599 6.4904C2.91487 6.0402 2.84496 5.69066 2.83431 5.42594C2.82633 5.2268 2.85274 5.09744 2.88704 5.01383L2.92318 4.9445C3.00641 4.81847 3.22989 4.66865 3.764 4.54899L3.76693 4.54801C3.89345 4.51874 4.03144 4.49326 4.18099 4.46989L4.18587 4.52946Z" stroke="var(--stroke-0, #A3A3A3)"/>
<path id="Vector_4" d="M22.7321 4.47302C23.0241 4.51905 23.2709 4.57286 23.4733 4.64001C23.791 4.7454 23.9307 4.85936 23.9899 4.95056C24.0408 5.03039 24.0901 5.17991 24.07 5.46716C24.0497 5.75609 23.9618 6.14118 23.7878 6.64685L23.7438 6.77478C23.2229 8.22326 22.2536 9.87306 20.9176 11.0277C20.9473 10.9693 20.9765 10.9108 21.0065 10.8529L21.3073 10.3021C21.4827 10.0007 21.6585 9.75227 21.8415 9.49548C22.2138 8.97718 22.5928 8.44839 22.9196 7.51696H22.9206L22.9225 7.50915C22.9449 7.44219 22.9679 7.38542 23.0036 7.2865C23.1171 6.98376 23.2665 6.58817 23.3337 6.19665C23.4004 5.80728 23.4024 5.32687 23.1188 4.91247C23.0125 4.75637 22.8796 4.63206 22.7272 4.5365L22.7321 4.47302Z" stroke="var(--stroke-0, #A3A3A3)"/>
<path id="Vector_5" d="M10.2189 0.624023C11.9497 0.472841 13.8288 0.467224 15.5207 0.56543C16.3565 0.613289 17.1452 0.688273 17.8449 0.780273V0.78125C18.2961 0.841577 18.7389 0.8814 19.2013 0.958984C19.7528 1.0519 20.2315 1.18705 20.5832 1.41211C20.8699 1.59566 21.0772 1.84083 21.1671 2.21289L21.1984 2.37988C21.2392 2.6851 21.2136 3.23561 21.1525 3.85059C21.1228 4.14969 21.0858 4.45104 21.049 4.72656L20.9445 5.44727C20.3403 9.26296 18.2827 12.8134 15.2863 15.2246L15.0646 15.4033L15.1046 15.6846C15.1416 15.9444 15.1629 16.1988 15.1681 16.4512V16.4531C15.1931 17.5094 14.943 18.5202 14.4152 19.4268L14.1408 19.8984L14.6349 20.1309C14.8981 20.2546 15.3787 20.5068 15.9015 20.8223L15.9025 20.8232C16.4048 21.1245 16.9293 21.4716 17.3332 21.8057C17.5355 21.973 17.6955 22.1273 17.8058 22.2617C17.8605 22.3284 17.8975 22.3841 17.921 22.4277C17.9325 22.449 17.9402 22.4657 17.9445 22.4775C17.948 22.4873 17.9491 22.4927 17.9494 22.4941V22.4951C17.9729 22.6438 17.9695 22.8216 17.9582 23.0537C17.9552 23.114 17.9524 23.179 17.9494 23.2471H8.9562C8.95318 23.1791 8.95036 23.114 8.94741 23.0537C8.93608 22.8223 8.93237 22.6449 8.95522 22.4961C8.95909 22.4719 8.99908 22.3661 9.17495 22.1768C9.33759 22.0017 9.56782 21.806 9.84389 21.6006C10.257 21.2932 10.7408 20.9872 11.1876 20.7178L11.6183 20.4619C11.8998 20.2968 12.1523 20.1504 12.3234 20.0449L12.7257 19.7969L12.5001 19.3809C12.1951 18.8191 11.9452 18.2135 11.8224 17.6045V17.6035L11.7667 17.2676C11.7528 17.1565 11.7434 17.0457 11.7394 16.9355V16.9336C11.7342 16.8002 11.7655 16.5831 11.7999 16.2871C11.8153 16.1555 11.8308 16.0099 11.8341 15.8789C11.8369 15.7721 11.8365 15.5816 11.7619 15.4141L11.7599 15.4092L11.7189 15.335C11.6751 15.2661 11.6251 15.2124 11.6017 15.1875C11.5546 15.1373 11.4978 15.083 11.4396 15.0293C11.3224 14.9212 11.1743 14.7932 11.0275 14.668C10.7924 14.4674 10.5741 14.2843 10.4357 14.1582L10.3263 14.0527L10.0705 13.7764C8.05912 11.5568 6.73848 9.04083 6.11343 6.23633V6.23535L6.01675 5.77441C5.98689 5.61924 5.95963 5.46223 5.93374 5.30469V5.30371L5.84097 4.68262C5.75971 4.05559 5.71087 3.41251 5.6935 2.75684V2.58789C5.70363 2.21283 5.7859 1.96549 5.90151 1.79004L5.90054 1.78906C6.06111 1.5476 6.34274 1.35876 6.82925 1.20215L7.05093 1.13672C7.95951 0.892804 9.04741 0.726243 10.2189 0.625V0.624023Z" stroke="var(--stroke-0, #A3A3A3)"/>
</g>
<path id="Vector_6" d="M22.732 4.47314C23.024 4.51917 23.2708 4.57298 23.4732 4.64013C23.7909 4.74552 23.9307 4.85948 23.9898 4.95068C24.0407 5.03051 24.09 5.18002 24.0699 5.46728C24.0496 5.75621 23.9617 6.1413 23.7877 6.64696L23.7437 6.77489C23.2228 8.22337 22.2535 9.87318 20.9176 11.0278C20.9472 10.9694 20.9764 10.9109 21.0064 10.853L21.3072 10.3022C21.4826 10.0008 21.6585 9.75238 21.8414 9.4956C22.2137 8.9773 22.5928 8.44851 22.9195 7.51708H22.9205L22.9224 7.50927C22.9448 7.44231 22.9678 7.38554 23.0035 7.28661C23.117 6.98387 23.2664 6.58829 23.3336 6.19677C23.4003 5.8074 23.4023 5.32699 23.1187 4.91259C23.0124 4.75649 22.8795 4.63218 22.7271 4.53661L22.732 4.47314Z" fill="var(--fill-0, #FFC152)" stroke="var(--stroke-0, #A3A3A3)"/>
</g>
</g>
</svg>
