<svg preserveAspectRatio="none" width="100%" height="100%" overflow="visible" style="display: block;" viewBox="0 0 155 155" fill="none" xmlns="http://www.w3.org/2000/svg">
<g id="material-symbols:person" clip-path="url(#clip0_999_7153)">
<path id="Vector" d="M77.4999 82.4999C67.4514 82.4999 58.8493 78.922 51.6935 71.7663C44.5378 64.6105 40.9599 56.0084 40.9599 45.9599C40.9599 35.9114 44.5378 27.3093 51.6935 20.1535C58.8493 12.9978 67.4514 9.41992 77.4999 9.41992C87.5484 9.41992 96.1505 12.9978 103.306 20.1535C110.462 27.3093 114.04 35.9114 114.04 45.9599C114.04 56.0084 110.462 64.6105 103.306 71.7663C96.1505 78.922 87.5484 82.4999 77.4999 82.4999ZM4.41992 155.58V130.002C4.41992 124.825 5.75363 120.069 8.42105 115.733C11.0885 111.397 14.6268 108.084 19.0359 105.794C28.4754 101.074 38.0672 97.5361 47.8112 95.1793C57.5552 92.8225 67.4514 91.641 77.4999 91.6349C87.5484 91.6288 97.4447 92.8103 107.189 95.1793C116.933 97.5483 126.524 101.087 135.964 105.794C140.379 108.078 143.921 111.391 146.588 115.733C149.255 120.075 150.586 124.832 150.58 130.002V155.58H4.41992Z" fill="var(--fill-0, #D5D5D5)"/>
</g>
<defs>
<clipPath id="clip0_999_7153">
<rect width="155" height="155" fill="white"/>
</clipPath>
</defs>
</svg>
