<svg preserveAspectRatio="none" width="100%" height="100%" overflow="visible" style="display: block;" viewBox="0 0 18.7441 18" fill="none" xmlns="http://www.w3.org/2000/svg">
<path id="Vector" d="M10.5 4.50003V8.57534L13.8863 10.6069C14.0568 10.7093 14.1797 10.8753 14.2279 11.0684C14.2761 11.2614 14.2456 11.4657 14.1431 11.6363C14.0407 11.8068 13.8747 11.9297 13.6816 11.9779C13.4886 12.0261 13.2843 11.9956 13.1138 11.8932L9.36375 9.64315C9.25276 9.57647 9.16093 9.48219 9.09718 9.36949C9.03344 9.25679 8.99996 9.12951 9 9.00003V4.50003C9 4.30112 9.07902 4.11035 9.21967 3.9697C9.36032 3.82905 9.55109 3.75003 9.75 3.75003C9.94891 3.75003 10.1397 3.82905 10.2803 3.9697C10.421 4.11035 10.5 4.30112 10.5 4.50003ZM9.75 2.77605e-05C8.56687 -0.00291932 7.3949 0.22881 6.30193 0.681803C5.20895 1.1348 4.21667 1.80006 3.3825 2.63909C2.70094 3.32909 2.09531 3.99284 1.5 4.68753V3.00003C1.5 2.80112 1.42098 2.61035 1.28033 2.4697C1.13968 2.32905 0.948912 2.25003 0.75 2.25003C0.551088 2.25003 0.360322 2.32905 0.21967 2.4697C0.0790176 2.61035 0 2.80112 0 3.00003V6.75003C0 6.94894 0.0790176 7.13971 0.21967 7.28036C0.360322 7.42101 0.551088 7.50003 0.75 7.50003H4.5C4.69891 7.50003 4.88968 7.42101 5.03033 7.28036C5.17098 7.13971 5.25 6.94894 5.25 6.75003C5.25 6.55112 5.17098 6.36035 5.03033 6.2197C4.88968 6.07905 4.69891 6.00003 4.5 6.00003H2.34375C3.01406 5.21065 3.68156 4.46722 4.44281 3.69659C5.48518 2.65423 6.8116 1.94216 8.25635 1.64935C9.70109 1.35654 11.2001 1.49598 12.566 2.05023C13.932 2.60449 15.1043 3.54899 15.9366 4.76572C16.7688 5.98245 17.224 7.41745 17.2453 8.89142C17.2666 10.3654 16.8531 11.813 16.0564 13.0532C15.2598 14.2935 14.1152 15.2716 12.7659 15.8651C11.4165 16.4586 9.92221 16.6414 8.46959 16.3905C7.01698 16.1396 5.67052 15.4662 4.59844 14.4544C4.52679 14.3867 4.4425 14.3338 4.35039 14.2986C4.25828 14.2635 4.16015 14.2468 4.0616 14.2496C3.96305 14.2524 3.86602 14.2746 3.77604 14.3149C3.68606 14.3551 3.6049 14.4128 3.53719 14.4844C3.46947 14.5561 3.41654 14.6403 3.3814 14.7325C3.34626 14.8246 3.32961 14.9227 3.3324 15.0212C3.33518 15.1198 3.35735 15.2168 3.39764 15.3068C3.43792 15.3968 3.49554 15.4779 3.56719 15.5457C4.63542 16.5537 5.93414 17.285 7.35 17.6757C8.76587 18.0665 10.2558 18.1047 11.6899 17.7872C13.1239 17.4696 14.4585 16.8059 15.577 15.854C16.6956 14.9021 17.5642 13.6909 18.107 12.3261C18.6498 10.9613 18.8503 9.48439 18.6911 8.02426C18.5318 6.56414 18.0177 5.16517 17.1934 3.94947C16.3692 2.73376 15.2599 1.73825 13.9625 1.04982C12.665 0.361401 11.2188 0.000983756 9.75 2.77605e-05Z" fill="var(--fill-0, #F5F5F5)"/>
</svg>
