<svg preserveAspectRatio="none" width="100%" height="100%" overflow="visible" style="display: block;" viewBox="0 0 24 24" fill="none" xmlns="http://www.w3.org/2000/svg">
<g id="Group">
<path id="Vector" d="M0 10.6667C0 5.63866 -2.20079e-07 3.12399 1.56267 1.56267C3.12399 -2.20079e-07 5.63866 0 10.6667 0H13.3333C18.3613 0 20.876 -2.20079e-07 22.4373 1.56267C24 3.12399 24 5.63866 24 10.6667V13.3333C24 18.3613 24 20.876 22.4373 22.4373C20.876 24 18.3613 24 13.3333 24H10.6667C5.63866 24 3.12399 24 1.56267 22.4373C-2.20079e-07 20.876 0 18.3613 0 13.3333V10.6667Z" fill="var(--fill-0, #CECECE)"/>
<path id="Vector_2" d="M12.0256 12.6154C14.2347 12.6154 16.0256 10.8245 16.0256 8.61538C16.0256 6.40625 14.2347 4.61539 12.0256 4.61539C9.81644 4.61539 8.02557 6.40625 8.02557 8.61538C8.02557 10.8245 9.81644 12.6154 12.0256 12.6154Z" fill="var(--fill-0, white)"/>
<path id="Vector_3" fill-rule="evenodd" clip-rule="evenodd" d="M18.9716 18.8684C18.9796 18.9197 18.9702 18.9723 18.9448 19.0176C18.9194 19.0629 18.8795 19.0984 18.8316 19.1184C17.6306 19.6154 15.8616 19.6154 13.0256 19.6154H11.0256C8.19055 19.6154 6.42055 19.6154 5.21956 19.1174C5.17179 19.0974 5.13205 19.0621 5.10669 19.017C5.08133 18.9719 5.07178 18.9196 5.07955 18.8684C5.50855 15.9074 8.45455 13.6154 12.0256 13.6154C15.5966 13.6154 18.5426 15.9074 18.9716 18.8684Z" fill="var(--fill-0, white)"/>
</g>
</svg>
