<svg preserveAspectRatio="none" width="100%" height="100%" overflow="visible" style="display: block;" viewBox="0 0 28.3333 27.0812" fill="none" xmlns="http://www.w3.org/2000/svg">
<g id="Group">
<path id="Vector" d="M3.54167 1.77083C3.07201 1.77083 2.62159 1.9574 2.2895 2.2895C1.9574 2.62159 1.77083 3.07201 1.77083 3.54167V17.7083C1.77083 18.178 1.9574 18.6284 2.2895 18.9605C2.62159 19.2926 3.07201 19.4792 3.54167 19.4792H20.5169C21.4561 19.4794 22.3568 19.8526 23.0208 20.5169L26.5625 24.0585V3.54167C26.5625 3.07201 26.3759 2.62159 26.0438 2.2895C25.7117 1.9574 25.2613 1.77083 24.7917 1.77083H3.54167ZM24.7917 0C25.731 0 26.6318 0.373139 27.296 1.03733C27.9602 1.70152 28.3333 2.60236 28.3333 3.54167V26.1959C28.3333 26.3711 28.2813 26.5424 28.1839 26.688C28.0865 26.8336 27.9481 26.9471 27.7861 27.014C27.6242 27.0809 27.4461 27.0983 27.2743 27.064C27.1025 27.0296 26.9448 26.9451 26.821 26.821L21.7689 21.7689C21.4368 21.4367 20.9865 21.2501 20.5169 21.25H3.54167C2.60236 21.25 1.70152 20.8769 1.03733 20.2127C0.373139 19.5485 0 18.6476 0 17.7083V3.54167C0 2.60236 0.373139 1.70152 1.03733 1.03733C1.70152 0.373139 2.60236 0 3.54167 0L24.7917 0Z" fill="var(--fill-0, #FAFAFA)"/>
<path id="Vector_2" d="M8.85417 10.625C8.85417 11.0946 8.6676 11.5451 8.3355 11.8772C8.00341 12.2093 7.55299 12.3958 7.08333 12.3958C6.61368 12.3958 6.16326 12.2093 5.83117 11.8772C5.49907 11.5451 5.3125 11.0946 5.3125 10.625C5.3125 10.1553 5.49907 9.70491 5.83117 9.37282C6.16326 9.04072 6.61368 8.85415 7.08333 8.85415C7.55299 8.85415 8.00341 9.04072 8.3355 9.37282C8.6676 9.70491 8.85417 10.1553 8.85417 10.625ZM15.9375 10.625C15.9375 11.0946 15.7509 11.5451 15.4188 11.8772C15.0867 12.2093 14.6363 12.3958 14.1667 12.3958C13.697 12.3958 13.2466 12.2093 12.9145 11.8772C12.5824 11.5451 12.3958 11.0946 12.3958 10.625C12.3958 10.1553 12.5824 9.70491 12.9145 9.37282C13.2466 9.04072 13.697 8.85415 14.1667 8.85415C14.6363 8.85415 15.0867 9.04072 15.4188 9.37282C15.7509 9.70491 15.9375 10.1553 15.9375 10.625ZM23.0208 10.625C23.0208 11.0946 22.8343 11.5451 22.5022 11.8772C22.1701 12.2093 21.7197 12.3958 21.25 12.3958C20.7803 12.3958 20.3299 12.2093 19.9978 11.8772C19.6657 11.5451 19.4792 11.0946 19.4792 10.625C19.4792 10.1553 19.6657 9.70491 19.9978 9.37282C20.3299 9.04072 20.7803 8.85415 21.25 8.85415C21.7197 8.85415 22.1701 9.04072 22.5022 9.37282C22.8343 9.70491 23.0208 10.1553 23.0208 10.625Z" fill="var(--fill-0, #FAFAFA)"/>
</g>
</svg>
