<svg preserveAspectRatio="none" width="100%" height="100%" overflow="visible" style="display: block;" viewBox="0 0 27.6549 27.6549" fill="none" xmlns="http://www.w3.org/2000/svg">
<path id="Vector" d="M27.3436 25.8401L20.6937 19.1915C22.6211 16.8776 23.5822 13.9096 23.377 10.905C23.1719 7.90046 21.8163 5.09065 19.5923 3.0601C17.3683 1.02955 14.447 -0.0654007 11.4362 0.00302416C8.42545 0.071449 5.55696 1.29798 3.42747 3.42747C1.29798 5.55696 0.071449 8.42545 0.00302416 11.4362C-0.0654007 14.447 1.02955 17.3683 3.0601 19.5923C5.09065 21.8163 7.90046 23.1719 10.905 23.377C13.9096 23.5822 16.8776 22.6211 19.1915 20.6937L25.8401 27.3436C25.9389 27.4423 26.056 27.5206 26.185 27.574C26.314 27.6274 26.4522 27.6549 26.5919 27.6549C26.7315 27.6549 26.8697 27.6274 26.9987 27.574C27.1277 27.5206 27.2449 27.4423 27.3436 27.3436C27.4423 27.2449 27.5206 27.1277 27.574 26.9987C27.6274 26.8697 27.6549 26.7315 27.6549 26.5919C27.6549 26.4522 27.6274 26.314 27.574 26.185C27.5206 26.056 27.4423 25.9389 27.3436 25.8401ZM2.15436 11.7169C2.15436 9.82557 2.71519 7.97676 3.76593 6.40421C4.81667 4.83167 6.31013 3.60602 8.05745 2.88226C9.80476 2.15849 11.7275 1.96913 13.5824 2.3381C15.4373 2.70707 17.1412 3.61781 18.4786 4.95515C19.8159 6.29249 20.7266 7.99636 21.0956 9.8513C21.4646 11.7062 21.2752 13.6289 20.5515 15.3763C19.8277 17.1236 18.602 18.617 17.0295 19.6678C15.457 20.7185 13.6081 21.2794 11.7169 21.2794C9.18159 21.2765 6.75096 20.2682 4.95825 18.4755C3.16555 16.6828 2.15717 14.2521 2.15436 11.7169Z" fill="var(--fill-0, #A3A3A3)"/>
</svg>
