<svg preserveAspectRatio="none" width="100%" height="100%" overflow="visible" style="display: block;" viewBox="0 0 24 24" fill="none" xmlns="http://www.w3.org/2000/svg">
<g id="Reddit">
<path id="Vector" d="M22.8 12.1807C22.8 10.7953 21.7371 9.67087 20.4274 9.67087C19.7821 9.67087 19.2127 9.93189 18.7951 10.3736C17.1817 9.14882 14.942 8.34567 12.4745 8.24528L13.5564 2.88425L17.0678 3.66732C17.1058 4.61102 17.846 5.37402 18.7571 5.37402C19.6872 5.37402 20.4464 4.57087 20.4464 3.58701C20.4464 2.60315 19.6872 1.8 18.7571 1.8C18.0928 1.8 17.5234 2.20157 17.2576 2.80394L13.3286 1.92047C13.2148 1.90039 13.1009 1.92047 13.006 1.98071C12.9111 2.04095 12.8541 2.14134 12.8162 2.26181L11.6204 8.24528C9.09596 8.32559 6.83726 9.10866 5.20492 10.3736C4.78735 9.95197 4.19895 9.67087 3.57258 9.67087C2.26292 9.67087 1.2 10.7953 1.2 12.1807C1.2 13.2047 1.76942 14.0681 2.60457 14.4697C2.56661 14.7106 2.54763 14.9717 2.54763 15.2327C2.54763 19.0878 6.78032 22.2 12.019 22.2C17.2576 22.2 21.4903 19.0878 21.4903 15.2327C21.4903 14.9717 21.4714 14.7307 21.4334 14.4898C22.2116 14.0882 22.8 13.2047 22.8 12.1807ZM6.57153 13.9677C6.57153 12.9839 7.33076 12.1807 8.26081 12.1807C9.19086 12.1807 9.95009 12.9839 9.95009 13.9677C9.95009 14.9516 9.19086 15.7547 8.26081 15.7547C7.33076 15.7547 6.57153 14.9516 6.57153 13.9677ZM16.0049 18.6862C14.8471 19.911 12.6453 19.9913 12 19.9913C11.3547 19.9913 9.13392 19.8909 7.99508 18.6862C7.82425 18.5055 7.82425 18.2043 7.99508 18.0236C8.1659 17.8429 8.45061 17.8429 8.62144 18.0236C9.34271 18.7866 10.8991 19.0677 12.019 19.0677C13.1388 19.0677 14.6763 18.7866 15.4165 18.0236C15.5873 17.8429 15.8721 17.8429 16.0429 18.0236C16.1757 18.2244 16.1757 18.5055 16.0049 18.6862ZM15.7012 15.7547C14.7712 15.7547 14.012 14.9516 14.012 13.9677C14.012 12.9839 14.7712 12.1807 15.7012 12.1807C16.6313 12.1807 17.3905 12.9839 17.3905 13.9677C17.3905 14.9516 16.6313 15.7547 15.7012 15.7547Z" fill="var(--fill-0, #FF4500)"/>
</g>
</svg>
