<svg preserveAspectRatio="none" width="100%" height="100%" overflow="visible" style="display: block;" viewBox="0 0 14.2516 26.1263" fill="none" xmlns="http://www.w3.org/2000/svg">
<path id="Vector" d="M13.9036 24.098C14.0139 24.2083 14.1014 24.3393 14.1612 24.4835C14.2209 24.6276 14.2516 24.7821 14.2516 24.9382C14.2516 25.0942 14.2209 25.2487 14.1612 25.3929C14.1014 25.537 14.0139 25.668 13.9036 25.7783C13.7933 25.8886 13.6623 25.9762 13.5181 26.0359C13.374 26.0956 13.2195 26.1263 13.0634 26.1263C12.9074 26.1263 12.7529 26.0956 12.6087 26.0359C12.4646 25.9762 12.3336 25.8886 12.2233 25.7783L0.348278 13.9033C0.237868 13.793 0.15028 13.6621 0.0905198 13.5179C0.0307597 13.3737 0 13.2192 0 13.0632C0 12.9071 0.0307597 12.7526 0.0905198 12.6084C0.15028 12.4643 0.237868 12.3333 0.348278 12.223L12.2233 0.348004C12.4461 0.125181 12.7483 -6.21176e-09 13.0634 0C13.3786 6.21176e-09 13.6808 0.125181 13.9036 0.348004C14.1264 0.570827 14.2516 0.873041 14.2516 1.18816C14.2516 1.50328 14.1264 1.80549 13.9036 2.02832L2.86726 13.0632L13.9036 24.098Z" fill="var(--fill-0, #F5F5F5)"/>
</svg>
